<!DOCTYPE svg PUBLIC "-//W3C//DTD SVG 1.1//EN" "http://www.w3.org/Graphics/SVG/1.1/DTD/svg11.dtd">
<!-- Uploaded to: SVG Repo, www.svgrepo.com, Transformed by: SVG Repo Mixer Tools -->
<svg width="210px" height="210px" viewBox="-6.24 -6.24 36.48 36.48" fill="none" xmlns="http://www.w3.org/2000/svg" stroke="#C9A227">
<g id="SVGRepo_bgCarrier" stroke-width="0"/>
<g id="SVGRepo_tracerCarrier" stroke-linecap="round" stroke-linejoin="round" stroke="#C9A227" stroke-width="3.8880000000000003"> <circle cx="19" cy="5" r="3" stroke="#0F3D91" stroke-width="1.056"/> <path d="M7 14L9.29289 11.7071C9.68342 11.3166 10.3166 11.3166 10.7071 11.7071L12.2929 13.2929C12.6834 13.6834 13.3166 13.6834 13.7071 13.2929L17 10M17 10V12.5M17 10H14.5" stroke="#0F3D91" stroke-width="1.056" stroke-linecap="round" stroke-linejoin="round"/> <path d="M22 10.5V12C22 16.714 22 19.0711 20.5355 20.5355C19.0711 22 16.714 22 12 22C7.28595 22 4.92893 22 3.46447 20.5355C2 19.0711 2 16.714 2 12C2 10.8717 2 9.87835 2.02008 9M13.5 2H12C7.28595 2 4.92893 2 3.46447 3.46447C3.02355 3.90538 2.71538 4.4272 2.5 5.0699" stroke="#0F3D91" stroke-width="1.056" stroke-linecap="round"/> </g>
<g id="SVGRepo_iconCarrier"> <circle cx="19" cy="5" r="3" stroke="#0F3D91" stroke-width="1.056"/> <path d="M7 14L9.29289 11.7071C9.68342 11.3166 10.3166 11.3166 10.7071 11.7071L12.2929 13.2929C12.6834 13.6834 13.3166 13.6834 13.7071 13.2929L17 10M17 10V12.5M17 10H14.5" stroke="#0F3D91" stroke-width="1.056" stroke-linecap="round" stroke-linejoin="round"/> <path d="M22 10.5V12C22 16.714 22 19.0711 20.5355 20.5355C19.0711 22 16.714 22 12 22C7.28595 22 4.92893 22 3.46447 20.5355C2 19.0711 2 16.714 2 12C2 10.8717 2 9.87835 2.02008 9M13.5 2H12C7.28595 2 4.92893 2 3.46447 3.46447C3.02355 3.90538 2.71538 4.4272 2.5 5.0699" stroke="#0F3D91" stroke-width="1.056" stroke-linecap="round"/> </g>
</svg>