<!DOCTYPE svg PUBLIC "-//W3C//DTD SVG 1.1//EN" "http://www.w3.org/Graphics/SVG/1.1/DTD/svg11.dtd">
<!-- Uploaded to: SVG Repo, www.svgrepo.com, Transformed by: SVG Repo Mixer Tools -->
<svg fill="#0F3D91" width="800px" height="800px" viewBox="0 0 24 24" id="check-mark-square-2" data-name="Flat Color" xmlns="http://www.w3.org/2000/svg" class="icon flat-color" stroke="#0F3D91" stroke-width="0.00024000000000000003">
<g id="SVGRepo_bgCarrier" stroke-width="0"/>
<g id="SVGRepo_tracerCarrier" stroke-linecap="round" stroke-linejoin="round"/>
<g id="SVGRepo_iconCarrier">
<path id="primary" d="M22,9.24V20a2,2,0,0,1-2,2H4a2,2,0,0,1-2-2V4A2,2,0,0,1,4,2H18.76a1,1,0,0,1,.7,1.71L12,11.17,9.41,8.59A2,2,0,0,0,6,10a2,2,0,0,0,.59,1.42l4,4a2,2,0,0,0,2.83,0l6.88-6.88A1,1,0,0,1,22,9.24Z" style="fill: #0F3D91;"/>
<path id="secondary" d="M12,15a1,1,0,0,1-.71-.29l-4-4A1,1,0,1,1,8.71,9.29L12,12.59l8.29-8.3a1,1,0,1,1,1.42,1.42l-9,9A1,1,0,0,1,12,15Z" style="fill: #C9A227;"/>
</g>
</svg>